<svg width="300" height="350" viewBox="0 0 300 350" fill="none" xmlns="http://www.w3.org/2000/svg">
<path d="M77.6759 222.894C73.6591 229.469 67.0704 234.425 59.6396 236.461C56.2291 237.395 52.0912 237.539 49.6693 234.963" stroke="black" stroke-width="7" stroke-linecap="round" stroke-linejoin="round"/>
<path d="M187.96 214.205C196.051 210.731 203.274 205.55 210.401 200.38C219.478 193.795 228.583 187.103 236.163 178.84C243.744 170.577 249.787 160.548 251.596 149.481C252.136 146.174 252.181 142.437 250.02 139.874C247.922 137.387 244.215 136.746 241.059 137.54C237.904 138.335 235.193 140.322 232.693 142.405C224.758 149.018 216.125 160.655 215.696 171.337" stroke="black" stroke-width="7" stroke-linecap="round" stroke-linejoin="round"/>
<path d="M119.249 221.573C120.236 261.538 118.274 301.575 113.382 341.252C110.422 339.084 106.411 333.993 106.411 333.993" stroke="black" stroke-width="7" stroke-linecap="round" stroke-linejoin="round"/>
<path d="M141.8 217.84C142.685 256.821 145.237 300.085 149.445 338.848L155.879 330.202" stroke="black" stroke-width="7" stroke-linecap="round" stroke-linejoin="round"/>
<path d="M67.2843 222.22C108.697 222.996 150.159 221.207 191.351 216.866C188.736 196.121 186.413 175.333 183.798 154.588C180.711 130.093 177.576 105.394 169.539 82.0506C165.896 71.4714 160.929 60.7972 152.079 53.9505C143.892 47.6161 133.301 45.2918 122.992 44.3537C111.987 43.3523 100.359 43.8633 90.7218 49.2705C81.789 54.2822 75.4752 63.041 71.2694 72.3804C64.4993 87.4141 62.5823 104.108 62.5319 120.596C62.4277 154.697 63.7989 183.213 67.2843 222.22Z" fill="#FF0008" stroke="#FF0109" stroke-width="7" stroke-linecap="round" stroke-linejoin="round"/>
<path d="M142.941 55.9264C143.572 59.573 144.173 63.225 144.742 66.8818C145.288 70.3875 145.5 74.6731 142.609 76.7298C140.865 77.9701 138.448 77.9141 136.473 77.0916C134.498 76.2691 132.878 74.7881 131.36 73.2796C125.395 67.3501 120.316 60.5313 116.342 53.1185C116.758 57.9264 118.861 61.9391 120.594 66.4431C122.327 70.9471 123.926 75.6571 123.671 80.4763C123.416 85.2954 120.904 90.2868 116.453 92.1521C111.306 94.3096 105.316 91.7345 101.113 88.0618C94.5781 82.351 90.5584 73.8583 90.2847 65.1838C90.2336 63.5658 90.614 61.5317 92.1809 61.1249C93.9911 60.6549 95.3134 62.7966 95.8819 64.5784C97.2751 68.9452 98.1676 73.6156 97.263 78.1091C96.3585 82.6027 93.3525 86.8841 88.9839 88.2717C84.6153 89.6593 79.1057 87.3072 77.9423 82.8736" stroke="black" stroke-width="7" stroke-linecap="round" stroke-linejoin="round"/>
<path d="M138.915 116.323V116.144" stroke="black" stroke-width="7" stroke-linecap="round" stroke-linejoin="round"/>
<path d="M152.321 116.323V116.144" stroke="black" stroke-width="7" stroke-linecap="round" stroke-linejoin="round"/>
<path d="M129.025 94.6933C129.951 91.8155 133.047 89.805 136.052 90.1299" stroke="black" stroke-width="7" stroke-linecap="round" stroke-linejoin="round"/>
<path d="M152.788 90.3568C155.145 89.6691 157.898 90.7091 159.212 92.7841" stroke="black" stroke-width="7" stroke-linecap="round" stroke-linejoin="round"/>
<path d="M147.103 127.104C148.179 127.241 149.097 128.014 149.644 128.951C150.191 129.888 150.416 130.976 150.561 132.051C150.843 134.145 150.851 136.266 150.859 138.379C150.863 139.61 150.865 140.86 150.522 142.042C149.908 144.156 147.078 146.414 145.134 144.203C144.712 143.723 144.482 143.108 144.286 142.5C143.387 139.706 140.658 126.289 147.103 127.104Z" stroke="black" stroke-width="7" stroke-linecap="round" stroke-linejoin="round"/>
<path d="M217.372 172.128C219.485 171.636 221.644 170.765 222.939 169.024C224.234 167.282 224.286 164.488 222.568 163.162C222.349 163.374 222.129 163.585 221.909 163.797" stroke="black" stroke-width="7" stroke-linecap="round" stroke-linejoin="round"/>
<path d="M215.167 170.959C217.175 172.393 219.87 172.812 222.218 172.056C224.566 171.3 226.51 169.387 227.304 167.051C226.559 166.882 225.815 166.712 225.07 166.543" stroke="black" stroke-width="7" stroke-linecap="round" stroke-linejoin="round"/>
<path d="M215.221 173.953C216.772 174.608 218.341 175.269 220.001 175.548C221.662 175.828 223.448 175.695 224.899 174.841C226.351 173.988 227.383 172.319 227.173 170.648" stroke="black" stroke-width="7" stroke-linecap="round" stroke-linejoin="round"/>
<path d="M207.158 126.595L204.782 124.145" stroke="black" stroke-width="7" stroke-linecap="round" stroke-linejoin="round"/>
<path d="M197.879 140.09C196.559 139.794 195.239 139.498 193.919 139.202" stroke="black" stroke-width="7" stroke-linecap="round" stroke-linejoin="round"/>
<path d="M193.928 153.796L190.793 154.004" stroke="black" stroke-width="7" stroke-linecap="round" stroke-linejoin="round"/>
<path d="M217.894 149.881L225.697 153.796" stroke="black" stroke-width="7" stroke-linecap="round" stroke-linejoin="round"/>
<path d="M49.6692 234.963C48.0781 233.27 47.6373 230.734 48.0235 228.443C48.4096 226.152 49.5216 224.053 50.7133 222.059C63.5108 200.645 86.6615 186.99 99.497 165.599C97.1572 163.173 95.192 159.341 94.3606 156.074" stroke="black" stroke-width="7" stroke-linecap="round" stroke-linejoin="round"/>
<path d="M99.38 165.296C99.2884 158.633 100.876 151.954 103.955 146.045" stroke="black" stroke-width="7" stroke-linecap="round" stroke-linejoin="round"/>
<path d="M99.4969 165.599C101.462 159.289 105.98 153.688 110.502 148.868" stroke="black" stroke-width="7" stroke-linecap="round" stroke-linejoin="round"/>
<path d="M99.7489 166.3C103.65 162.247 108.036 158.662 112.784 155.645" stroke="black" stroke-width="7" stroke-linecap="round" stroke-linejoin="round"/>
<path d="M223.152 138.184C220.023 146.324 215.972 154.108 211.103 161.342C208.103 161.259 205.099 160.204 202.713 158.382C206.13 149.421 210.603 140.875 216.45 133.272C219.211 133.475 220.938 136.524 223.152 138.184Z" fill="#F7CE46" stroke="#F7CE46" stroke-width="7" stroke-linecap="round" stroke-linejoin="round"/>
</svg>
